HIERARCHY
ROOT Hips
{
  OFFSET -60.3739 94.0169 -81.0824
  CHANNELS 6 Xposition Yposition Zposition Zrotation Xrotation Yrotation
  JOINT RightUpLeg
  {
    OFFSET -8.9458 -8.66707 0.101652
    CHANNELS 3 Zrotation Xrotation Yrotation
    JOINT RightLeg
    {
      OFFSET 0 -44.4227 1.3727
      CHANNELS 3 Zrotation Xrotation Yrotation
      JOINT RightFoot
      {
        OFFSET 0.253549 -42.0924 -1.46059
        CHANNELS 3 Zrotation Xrotation Yrotation
        JOINT RightToes
        {
          OFFSET 0.04 -4.41509 8.4991
          CHANNELS 3 Zrotation Xrotation Yrotation
          End Site
          {
            OFFSET -0.08 -0.137448 9.77979
          }
        }
      }
    }
  }
  JOINT Spine
  {
    OFFSET 0 11.8905 0
    CHANNELS 3 Zrotation Xrotation Yrotation
    JOINT Spine1
    {
      OFFSET 0 25.6574 0.127663
      CHANNELS 3 Zrotation Xrotation Yrotation
      JOINT HEad
      {
        OFFSET 0 8.73416 0.011341
        CHANNELS 3 Zrotation Xrotation Yrotation
        End Site
        {
          OFFSET -0.29 12.7742 2.51395
        }
      }
      JOINT LeftShoulder1
      {
        OFFSET 8.99 -0.362252 -0.22
        CHANNELS 3 Zrotation Xrotation Yrotation
        JOINT LeftArm
        {
          OFFSET 10.2827 -0.00338 0.322123
          CHANNELS 3 Zrotation Xrotation Yrotation
          JOINT LeftForeArm
          {
            OFFSET 32.7669 0.099144 -1.42434
            CHANNELS 3 Zrotation Xrotation Yrotation
            JOINT LeftHand
            {
              OFFSET 27.5643 0.085362 1.02216
              CHANNELS 3 Zrotation Xrotation Yrotation
              End Site
              {
                OFFSET 16.7443 -0.6 1.50291
              }
            }
          }
        }
      }
      JOINT RightShoulder
      {
        OFFSET -8.99 -0.362252 -0.22
        CHANNELS 3 Zrotation Xrotation Yrotation
        JOINT RightArm
        {
          OFFSET -10.2827 -0.00338 0.322123
          CHANNELS 3 Zrotation Xrotation Yrotation
          JOINT RightForeArm
          {
            OFFSET -32.8971 0.099144 -1.42434
            CHANNELS 3 Zrotation Xrotation Yrotation
            JOINT RightHand
            {
              OFFSET -27.4921 0.085362 1.02216
              CHANNELS 3 Zrotation Xrotation Yrotation
              End Site
              {
                OFFSET -16.6312 -0.6 1.50291
              }
            }
          }
        }
      }
    }
  }
  JOINT LeftUpLeg
  {
    OFFSET 8.9458 -8.66707 0.101652
    CHANNELS 3 Zrotation Xrotation Yrotation
    JOINT LeftLeg
    {
      OFFSET 0 -44.4227 1.3727
      CHANNELS 3 Zrotation Xrotation Yrotation
      JOINT LeftFoot
      {
        OFFSET -0.253549 -42.0924 -1.46059
        CHANNELS 3 Zrotation Xrotation Yrotation
        JOINT LeftToes
        {
          OFFSET -0.04 -4.41509 8.4991
          CHANNELS 3 Zrotation Xrotation Yrotation
          End Site
          {
            OFFSET 0.08 -0.047448 9.77979
          }
        }
      }
    }
  }
}
MOTION
Frames:	21
Frame Time:	0.0166667
-60.3739 94.0169 -81.0824 1.57107 -4.18924 72.3296 -31.0253 -32.2757 1.61941 21.9097 52.155 -16.4167 10.449 11.7607 -2.01874 0.0462048 0.000533403 0.662642 3.02225 5.54467 -3.70431 -0.941298 10.7131 -6.65745 8.50451 -0.49957 -16.107 3.97569e-016 7.95139e-016 -0 -89.0125 -6.91265 -45.0603 -39.8679 59.4868 -82.0657 7.21646 19.4659 -2.26649 24.6889 -3.10768 -14.0091 84.4024 -57.3791 55.2529 148.902 -26.5149 17.842 14.868 32.2246 78.1216 29.5845 -13.1883 -13.2568 -21.017 38.5794 15.565 -7.99557 28.5198 2.82709 -1.29045e-009 1.55943e-007 -4.85965e-009 
-60.6681 94.1464 -80.0234 2.00605 -4.45353 73.0086 -31.7784 -29.8374 2.54476 21.7197 50.2369 -19.9452 9.06771 9.28203 -1.47811 0.0462048 0.000533403 0.662642 3.02811 5.48041 -3.42329 -0.96604 10.6491 -6.10246 9.3823 0.0213563 -17.725 1.19271e-015 0 9.54166e-015 -88.1897 -4.60053 -44.9333 -39.3948 59.0522 -81.5919 7.21646 19.4659 -2.26649 24.3864 -3.18787 -14.4422 90.5338 -57.8304 63.4264 144.836 -29.6426 20.6269 18.7592 32.6925 74.5477 30.0514 -15.8108 -11.7699 -20.6823 41.2198 14.1983 -11.4303 33.1707 4.5054 -1.29045e-009 1.55943e-007 -4.85965e-009 
-60.971 93.9546 -79.0135 2.6772 -4.55659 73.287 -32.1894 -27.4474 3.88449 20.4263 48.1291 -21.4505 8.83006 7.93741 -1.20482 0.0462048 0.000533403 0.662642 2.94125 5.46991 -3.03636 -1.28168 10.6813 -5.31014 10.2681 0.396657 -19.3669 3.97569e-016 -1.59028e-015 -6.36111e-015 -87.2123 -2.46162 -45.3193 -38.9344 58.6653 -81.187 7.21646 19.4659 -2.26649 23.9694 -3.17926 -14.5981 94.6013 -56.8153 69.9758 140.46 -33.7333 24.2151 26.4207 31.3924 65.6085 29.8712 -18.1603 -9.94142 -19.4192 44.0785 11.2047 -16.2575 36.6631 6.79478 -1.29045e-009 1.55943e-007 -4.85965e-009 
-61.2754 93.4955 -77.969 3.46686 -4.50563 72.8416 -32.1067 -25.4748 5.26383 17.9218 46.0322 -20.2619 9.35413 8.22335 -1.17745 0.0462048 0.000533403 0.662642 2.72538 5.47856 -2.57482 -1.87236 10.7297 -4.34484 11.0596 0.762952 -20.6823 1.65521e-031 -2.98177e-015 3.18055e-015 -86.1981 -0.911212 -46.0517 -38.5622 58.4308 -80.9551 7.21646 19.4659 -2.26649 23.3871 -3.03416 -14.3026 95.2998 -54.7332 73.4903 137.672 -38.7069 29.637 35.5535 27.1131 53.0978 29.1148 -19.8529 -8.36282 -17.5999 46.4758 7.06043 -21.8558 38.4702 9.3338 -1.29044e-009 1.55943e-007 -4.85964e-009 
-61.5767 92.8773 -76.8226 4.22555 -4.35872 71.4911 -31.4875 -24.1594 6.32103 14.6039 44.0797 -16.789 10.1084 9.87917 -1.34512 0.0462048 0.000533403 0.662642 2.38149 5.47971 -2.09427 -2.64871 10.7337 -3.32507 11.6639 1.16241 -21.3889 -7.95139e-016 -1.14301e-015 9.54166e-015 -85.2857 -0.291614 -46.9375 -38.3502 58.4331 -80.9781 7.21646 19.4659 -2.26649 22.653 -2.76389 -13.5588 81.3888 -48.08 65.53 142.377 -36.6151 45.3593 41.9925 18.8371 40.0837 27.9693 -20.6267 -7.47103 -15.7104 47.8969 2.75595 -27.1104 38.7969 11.5343 -1.29044e-009 1.55943e-007 -4.85965e-009 
-61.8521 92.2209 -75.563 4.81058 -4.20632 69.235 -30.4161 -23.5627 6.87605 11.2077 42.3347 -12.2607 10.6068 12.1367 -1.59508 0.0462048 0.000533403 0.662642 1.96597 5.46331 -1.6727 -3.45551 10.6718 -2.41447 11.998 1.53594 -21.3032 9.93923e-017 2.48481e-017 -3.18055e-015 -84.6195 -0.822679 -47.8094 -38.3675 58.7134 -81.2622 7.21646 19.4659 -2.26649 21.8678 -2.44079 -12.573 66.9913 -39.0598 57.7579 151.224 -29.6211 62.6288 44.8092 8.06682 26.8086 26.649 -20.4407 -7.43313 -14.1344 48.3083 -0.486849 -30.8732 38.3082 12.9195 -1.29045e-009 1.55943e-007 -4.85965e-009 
-62.0563 91.6157 -74.2439 5.11026 -4.13502 66.2148 -29.0605 -23.6289 6.92726 8.40856 40.8637 -7.93651 10.4771 14.2188 -1.77249 0.0462048 0.000533403 0.662642 1.57693 5.43528 -1.3982 -4.10787 10.5609 -1.79752 12.0047 1.78647 -20.3292 -9.93923e-016 -5.96354e-016 -0 -84.3429 -2.58923 -48.5731 -38.6906 59.249 -81.672 7.21646 19.4659 -2.26649 21.2006 -2.16403 -11.6755 61.3973 -33.0535 55.0272 160.333 -24.8109 71.4307 44.2468 -2.51214 12.543 25.3254 -19.4929 -8.16656 -13.0766 48.1494 -1.63681 -32.3356 37.6987 13.2985 -1.29045e-009 1.55943e-007 -4.85964e-009 
-62.1429 91.106 -72.9529 5.06234 -4.19065 62.6367 -27.5859 -24.2539 6.52835 6.46797 39.7341 -4.37287 9.64235 15.6596 -1.77878 0.0462048 0.000533403 0.662642 1.30725 5.41078 -1.35045 -4.44039 10.4425 -1.6447 11.67 1.86087 -18.4339 0 8.44835e-016 -0 -84.5981 -5.54361 -49.2562 -39.402 59.9317 -81.8893 7.21646 19.4659 -2.26649 20.8312 -2.01622 -11.1805 62.5441 -30.0593 54.6255 169.457 -24.4772 72.5009 40.3063 -10.4532 -2.14441 24.1118 -18.1135 -9.3921 -12.6532 48.0123 -0.102262 -31.0899 37.4093 12.6633 -1.29045e-009 1.55943e-007 -4.85965e-009 
-62.0969 90.702 -71.7758 4.67131 -4.36376 58.7124 -26.0969 -25.3224 5.6998 5.18367 38.9565 -1.34383 8.44121 16.3849 -1.64981 0.0462048 0.000533403 0.662642 1.20396 5.40761 -1.5813 -4.34704 10.3679 -2.07327 11.0225 1.78803 -15.6384 -9.93923e-016 -3.97569e-016 -3.18055e-015 -85.5219 -9.49525 -50.0555 -40.5278 60.5444 -81.4632 7.21646 19.4659 -2.26649 20.8614 -2.03254 -11.2399 68.5818 -29.2542 55.1372 177.769 -30.4968 68.7761 35.0725 -14.3348 -14.9442 23.0852 -16.6025 -10.7124 -12.9733 48.2395 4.21956 -27.1153 37.5843 11.0769 -1.29045e-009 1.55943e-007 -4.85965e-009 
-61.9476 90.3939 -70.7764 4.01086 -4.60433 54.6468 -24.6333 -26.7215 4.44915 4.11923 38.4744 1.6985 7.42863 16.6485 -1.51263 0.0462048 0.000533403 0.662642 1.25505 5.44147 -2.09819 -3.80757 10.3838 -3.11179 10.129 1.65307 -12.0451 7.95139e-016 3.97569e-016 -6.36111e-015 -87.2105 -14.0683 -51.3479 -41.8514 60.7484 -80.0256 7.21646 19.4659 -2.26649 21.2337 -2.18219 -11.74 77.2437 -29.9797 55.6361 -176.676 -42.2224 62.6128 32.3837 -14.8146 -22.1293 22.3068 -15.1424 -11.7447 -14.0925 48.7584 10.9312 -20.7768 38.0993 8.64644 -1.29045e-009 1.55943e-007 -4.85965e-009 
-61.747 90.1637 -69.7297 3.17821 -4.86724 50.3454 -23.0083 -28.5886 2.86736 2.98842 38.6131 5.16548 6.68972 16.5913 -1.31374 0.0462048 0.000533403 0.662642 1.40121 5.52231 -2.85543 -2.90042 10.5212 -4.6782 9.09298 1.54639 -7.88193 -1.19271e-015 -7.95139e-016 -0 -90.2404 -17.9157 -55.2063 -43.1966 59.3816 -74.5169 7.23914 19.7438 -2.30292 21.7391 -2.37156 -12.3374 85.3146 -31.4536 55.1904 -177.591 -55.0336 51.7233 32.6043 -14.5284 -22.7929 21.9344 -13.4483 -12.3271 -15.8409 49.0194 19.0848 -13.2518 38.491 5.8255 -1.29044e-009 1.55943e-007 -4.85965e-009 
-61.5441 89.9893 -68.4842 2.29326 -5.11371 45.866 -21.0829 -30.8452 1.18828 1.61779 39.5048 9.07993 6.09578 16.3241 -0.985601 0.0462048 0.000533403 0.662642 1.57029 5.65279 -3.76204 -1.79007 10.7859 -6.58771 8.0358 1.53566 -3.50171 -1.59028e-015 0 6.36111e-015 -94.3632 -19.5674 -62.9395 -42.898 55.4796 -64.3585 7.29628 20.4762 -2.39986 22.1601 -2.49878 -12.6914 82.9749 -27.0075 50.6318 170.982 -53.4232 32.8639 33.5109 -15.3398 -16.9202 21.9092 -11.342 -12.493 -17.7097 48.7179 27.2227 -6.11696 38.3632 3.28657 -1.29045e-009 1.55943e-007 -4.85964e-009 
-61.3666 89.8485 -67.1831 1.49325 -5.31555 41.6438 -19.0068 -33.0824 -0.288968 0.0117099 40.8065 13.044 5.59113 16.0137 -0.581664 0.0462048 0.000533403 0.662642 1.718 5.82905 -4.70881 -0.676417 11.1579 -8.6027 7.03295 1.65913 0.707663 -1.59028e-015 3.18055e-015 3.18055e-015 -96.6146 -17.7491 -72.8402 -37.8094 48.2387 -53.8716 7.38157 21.5116 -2.53915 22.4095 -2.52657 -12.7021 78.4873 -20.7744 46.5886 160.622 -43.8787 17.3841 34.3833 -16.6073 -7.49011 21.9971 -9.11211 -12.3653 -19.3002 48.0942 33.9891 -0.613662 37.6193 1.52013 -1.29045e-009 1.55943e-007 -4.85963e-009 
-61.2112 89.7261 -65.9526 0.886462 -5.46393 38.0284 -17.0265 -34.9987 -1.32444 -1.57072 42.2602 16.5276 4.97985 15.651 -0.121241 0.0462048 0.000533403 0.662642 1.84039 6.04101 -5.59716 0.270762 11.5986 -10.4975 6.05347 1.91057 4.44977 7.95139e-016 1.59028e-015 3.18055e-015 -91.7958 -11.1548 -82.1191 -27.6766 34.9034 -45.11 7.48601 22.6983 -2.7023 22.5125 -2.48489 -12.4909 74.3596 -14.5015 44.3365 154.888 -31.4778 9.00987 34.4009 -18.0111 2.62733 22.0626 -7.02114 -12.1077 -20.5211 47.4607 38.6315 2.52958 36.352 0.763096 -1.29045e-009 1.55943e-007 -4.85965e-009 
-61.0539 89.6198 -64.8992 0.546778 -5.54856 35.2162 -15.4277 -36.4439 -1.82105 -2.80179 43.6967 19.1265 4.13755 15.1532 0.365756 0.0462048 0.000533403 0.662642 1.95131 6.27207 -6.34795 0.951303 12.0612 -12.09 4.98491 2.22654 7.57099 3.97569e-016 1.59028e-015 -0 -84.7696 -4.28688 -90.6052 -18.621 21.4518 -33.8272 7.59777 23.8846 -2.86944 22.5021 -2.4156 -12.214 71.3034 -9.38443 43.7952 151.931 -20.6641 5.5288 33.6088 -19.1944 11.0619 22.0559 -5.23685 -11.8369 -21.4844 47.0183 41.0676 3.40847 34.6938 0.868651 -1.29044e-009 1.55943e-007 -4.85965e-009 
-60.867 89.5384 -64.1115 0.508588 -5.54859 33.2596 -14.4421 -37.405 -1.82624 -3.46612 44.9949 20.692 3.12021 14.4588 0.817206 0.0462048 0.000533403 0.662642 2.05442 6.501 -6.89558 1.33445 12.5022 -13.2369 3.7477 2.5136 10.0041 -7.95139e-016 0 1.59028e-015 -78.94 1.03157 -97.4522 -11.5805 11.9193 -22.7311 7.70146 24.9192 -3.01875 22.3736 -2.33808 -11.9485 69.688 -6.44634 44.4111 150.4 -14.3753 4.59277 32.7458 -19.5497 16.565 21.9743 -3.84012 -11.6043 -22.3491 46.807 41.6856 2.7699 32.7466 1.43845 -1.29044e-009 1.55943e-007 -4.85964e-009 
-60.6367 89.4951 -63.671 0.762906 -5.44257 32.1542 -14.2005 -37.9349 -1.50687 -3.54212 46.0237 21.3022 2.13758 13.6135 1.15114 0.0462048 0.000533403 0.662642 2.13288 6.70711 -7.18754 1.43641 12.8898 -13.8314 2.41098 2.71253 11.6745 -1.19271e-015 1.59028e-015 1.59028e-015 -77.2052 4.04475 -101.584 -7.8779 8.21818 -15.7439 7.77838 25.6508 -3.12645 22.1176 -2.25401 -11.7014 69.5041 -6.07852 45.5469 149.957 -13.3833 4.81549 32.5451 -18.5973 19.0546 21.8481 -2.907 -11.4267 -23.2509 46.7901 41.1187 1.61557 30.6309 2.03134 -1.29045e-009 1.55943e-007 -4.85964e-009 
-60.3734 89.4992 -63.6657 1.26485 -5.2262 31.9507 -14.7631 -38.0617 -1.12027 -3.16114 46.6059 21.1214 1.45802 12.8189 1.29561 0.0462048 0.000533403 0.662642 2.15596 6.87592 -7.19618 1.2953 13.2085 -13.8238 1.22119 2.8468 12.4513 1.19271e-015 0 -0 -80.9231 4.32647 -101.999 -8.84514 10.4594 -15.4763 7.80862 25.9282 -3.16777 21.7728 -2.1662 -11.4666 70.3786 -8.13072 46.7296 150.555 -16.7979 5.61135 33.3402 -16.3424 19.0205 21.7436 -2.59084 -11.3197 -24.286 46.9788 40.0774 0.829889 28.4972 2.31822 -1.29045e-009 1.55943e-007 -4.85964e-009 
-60.1059 89.5521 -63.9114 1.91998 -4.92913 32.4664 -15.9056 -37.8707 -0.853638 -2.50968 46.8645 20.3757 0.994879 12.1859 1.32167 0.0462048 0.000533403 0.662642 2.09407 7.00253 -6.93134 0.954498 13.4597 -13.245 0.520687 3.00424 12.174 3.97569e-016 0 -0 -89.1959 2.10431 -99.5775 -13.8295 17.9929 -19.2529 7.80547 25.9041 -3.16417 21.4472 -2.08967 -11.2658 71.769 -12.2846 47.6788 152.108 -23.0221 6.85202 35.1136 -13.1808 17.0957 21.7477 -2.68249 -11.343 -25.2522 47.1768 39.0564 0.619867 26.5 2.32926 -1.29045e-009 1.55943e-007 -4.85965e-009 
-59.873 89.6447 -64.1506 2.62237 -4.59776 33.5002 -17.3369 -37.4373 -0.77864 -1.65835 47.0266 19.1392 0.499432 11.7738 1.34056 0.0462048 0.000533403 0.662642 1.93425 7.09178 -6.44033 0.457414 13.6584 -12.2028 0.605488 3.25463 10.7229 7.95139e-016 -3.18055e-015 3.18055e-015 -99.1938 -1.89841 -96.1073 -21.3315 28.8113 -22.1957 7.79789 25.8341 -3.15372 21.2849 -2.04903 -11.1532 73.1994 -18.2837 48.2471 154.45 -30.504 8.51454 37.6815 -9.64224 13.9497 21.9659 -2.89889 -11.5789 -25.8737 47.1452 38.3443 0.786984 24.6885 2.23313 -1.29045e-009 1.55943e-007 -4.85964e-009 
-59.7115 89.7558 -64.3925 3.30267 -4.26678 35.162 -19.0097 -36.7098 -0.887314 -0.500852 47.0535 17.2077 -0.040009 11.7368 1.36244 0.0462048 0.000533403 0.662642 1.6881 7.15671 -5.7915 -0.151612 13.829 -10.8466 1.60218 3.57428 8.08442 -7.95139e-016 0 -3.18055e-015 -106.339 -5.79776 -91.7064 -29.8395 38.2725 -23.5464 7.786 25.7217 -3.13699 21.4012 -2.07095 -11.2036 74.4044 -25.9417 48.3959 157.338 -38.1244 10.505 40.8122 -6.1815 10.2993 22.4886 -3.36876 -12.0577 -26.1293 46.9124 38.0943 1.19618 23.0197 2.07596 -1.29045e-009 1.55943e-007 -4.85964e-009 
